<?xml version="1.0" encoding="UTF-8" standalone="no"?>
<!-- Created with Inkscape (http://www.inkscape.org/) -->

<svg
   xmlns:dc="http://purl.org/dc/elements/1.1/"
   xmlns:cc="http://creativecommons.org/ns#"
   xmlns:rdf="http://www.w3.org/1999/02/22-rdf-syntax-ns#"
   xmlns:svg="http://www.w3.org/2000/svg"
   xmlns="http://www.w3.org/2000/svg"
   version="1.1"
   width="659.47998"
   height="344.07001"
   id="svg2"
   xml:space="preserve"><metadata
     id="metadata8"><rdf:RDF><cc:Work
         rdf:about=""><dc:format>image/svg+xml</dc:format><dc:type
           rdf:resource="http://purl.org/dc/dcmitype/StillImage" /><dc:title></dc:title></cc:Work></rdf:RDF></metadata><defs
     id="defs6"><clipPath
       id="clipPath38"><path
         d="m 0,0 595.276,0 0,793.701 L 0,793.701 0,0 z"
         id="path40" /></clipPath></defs><g
     transform="matrix(1.25,0,0,-1.25,-42.46,407.6325)"
     id="g10"><path
       d="m 33.968,50.85 527.584,0 0,275.256 -527.584,0 0,-275.256 z"
       id="path342"
       style="fill:#ededed;fill-opacity:1;fill-rule:nonzero;stroke:none" /><path
       d="m 555.94,317.686 -513.555,0 0,-11.225 513.555,0 0,11.225 z"
       id="path344"
       style="fill:#bdbcbc;fill-opacity:1;fill-rule:nonzero;stroke:#deddde;stroke-width:0.495;stroke-linecap:butt;stroke-linejoin:miter;stroke-miterlimit:4;stroke-opacity:1;stroke-dasharray:none" /><path
       d="m 555.94,241.897 -513.555,0 0,-19.083 513.555,0 0,19.083 z"
       id="path346"
       style="fill:#bdbcbc;fill-opacity:1;fill-rule:nonzero;stroke:#deddde;stroke-width:0.495;stroke-linecap:butt;stroke-linejoin:miter;stroke-miterlimit:4;stroke-opacity:1;stroke-dasharray:none" /><path
       d="m 555.94,158.25 -513.555,0 0,-19.082 513.555,0 0,19.082 z"
       id="path348"
       style="fill:#bdbcbc;fill-opacity:1;fill-rule:nonzero;stroke:#deddde;stroke-width:0.495;stroke-linecap:butt;stroke-linejoin:miter;stroke-miterlimit:4;stroke-opacity:1;stroke-dasharray:none" /><path
       d="m 476.194,91.26 79.746,0 0,-34.798 -79.746,0 0,34.798 z"
       id="path350"
       style="fill:#bdbcbc;fill-opacity:1;fill-rule:nonzero;stroke:#deddde;stroke-width:0.495;stroke-linecap:butt;stroke-linejoin:miter;stroke-miterlimit:4;stroke-opacity:1;stroke-dasharray:none" /><path
       d="m 389.433,91.26 79.745,0 0,-26.941 -79.745,0 0,26.941 z"
       id="path352"
       style="fill:#bdbcbc;fill-opacity:1;fill-rule:nonzero;stroke:#deddde;stroke-width:0.495;stroke-linecap:butt;stroke-linejoin:miter;stroke-miterlimit:4;stroke-opacity:1;stroke-dasharray:none" /><path
       d="m 302.672,91.26 79.746,0 0,-19.082 -79.746,0 0,19.082 z"
       id="path354"
       style="fill:#bdbcbc;fill-opacity:1;fill-rule:nonzero;stroke:#deddde;stroke-width:0.495;stroke-linecap:butt;stroke-linejoin:miter;stroke-miterlimit:4;stroke-opacity:1;stroke-dasharray:none" /><path
       d="m 215.909,91.26 79.746,0 0,-19.082 -79.746,0 0,19.082 z"
       id="path356"
       style="fill:#bdbcbc;fill-opacity:1;fill-rule:nonzero;stroke:#deddde;stroke-width:0.495;stroke-linecap:butt;stroke-linejoin:miter;stroke-miterlimit:4;stroke-opacity:1;stroke-dasharray:none" /><path
       d="m 129.148,91.26 79.746,0 0,-19.082 -79.746,0 0,19.082 z"
       id="path358"
       style="fill:#bdbcbc;fill-opacity:1;fill-rule:nonzero;stroke:#deddde;stroke-width:0.495;stroke-linecap:butt;stroke-linejoin:miter;stroke-miterlimit:4;stroke-opacity:1;stroke-dasharray:none" /><path
       d="m 42.387,91.26 79.746,0 0,-11.227 -79.746,0 0,11.227 z"
       id="path360"
       style="fill:#bdbcbc;fill-opacity:1;fill-rule:nonzero;stroke:#deddde;stroke-width:0.495;stroke-linecap:butt;stroke-linejoin:miter;stroke-miterlimit:4;stroke-opacity:1;stroke-dasharray:none" /><path
       d="m 476.194,120.827 79.746,0 0,-11.226 -79.746,0 0,11.226 z"
       id="path362"
       style="fill:#bdbcbc;fill-opacity:1;fill-rule:nonzero;stroke:#deddde;stroke-width:0.495;stroke-linecap:butt;stroke-linejoin:miter;stroke-miterlimit:4;stroke-opacity:1;stroke-dasharray:none" /><path
       d="m 302.622,120.827 166.556,0 0,-11.226 -166.556,0 0,11.226 z"
       id="path364"
       style="fill:#bdbcbc;fill-opacity:1;fill-rule:nonzero;stroke:#deddde;stroke-width:0.495;stroke-linecap:butt;stroke-linejoin:miter;stroke-miterlimit:4;stroke-opacity:1;stroke-dasharray:none" /><path
       d="m 129.151,120.827 166.556,0 0,-11.226 -166.556,0 0,11.226 z"
       id="path366"
       style="fill:#bdbcbc;fill-opacity:1;fill-rule:nonzero;stroke:#deddde;stroke-width:0.495;stroke-linecap:butt;stroke-linejoin:miter;stroke-miterlimit:4;stroke-opacity:1;stroke-dasharray:none" /><path
       d="m 334.633,299.427 221.308,0 0,-50.513 -221.308,0 0,50.513 z"
       id="path368"
       style="fill:#bdbcbc;fill-opacity:1;fill-rule:nonzero;stroke:#deddde;stroke-width:0.495;stroke-linecap:butt;stroke-linejoin:miter;stroke-miterlimit:4;stroke-opacity:1;stroke-dasharray:none" /><path
       d="m 334.633,215.78 221.308,0 0,-50.514 -221.308,0 0,50.514 z"
       id="path370"
       style="fill:#bdbcbc;fill-opacity:1;fill-rule:nonzero;stroke:#deddde;stroke-width:0.495;stroke-linecap:butt;stroke-linejoin:miter;stroke-miterlimit:4;stroke-opacity:1;stroke-dasharray:none" /><path
       d="m 554.537,319.089 -513.554,0 0,-11.225 513.554,0 0,11.225 z"
       id="path372"
       style="fill:#d3d2d2;fill-opacity:1;fill-rule:nonzero;stroke:none" /><g
       transform="translate(384.4595,133.553)"
       id="g374"><path
         d="M 0,0 0,-7.048"
         id="path376"
         style="fill:none;stroke:#2c6cbe;stroke-width:0.74199998;stroke-linecap:butt;stroke-linejoin:round;stroke-miterlimit:4;stroke-opacity:1;stroke-dasharray:none" /></g><g
       transform="translate(383.0577,127.4626)"
       id="g378"><path
         d="M 0,0 1.402,-5.233 2.806,0 0,0 z"
         id="path380"
         style="fill:#2c6cbe;fill-opacity:1;fill-rule:nonzero;stroke:none" /></g><g
       transform="translate(514.6564,111.0038)"
       id="g382"><path
         d="M 0,0 0,-14.065"
         id="path384"
         style="fill:none;stroke:#2c6cbe;stroke-width:0.74199998;stroke-linecap:butt;stroke-linejoin:round;stroke-miterlimit:4;stroke-opacity:1;stroke-dasharray:none" /></g><g
       transform="translate(513.2545,97.8952)"
       id="g386"><path
         d="M 0,0 1.402,-5.232 2.806,0 0,0 z"
         id="path388"
         style="fill:#2c6cbe;fill-opacity:1;fill-rule:nonzero;stroke:none" /></g><g
       transform="translate(211.0085,133.553)"
       id="g390"><path
         d="M 0,0 0,-7.048"
         id="path392"
         style="fill:none;stroke:#2c6cbe;stroke-width:0.74199998;stroke-linecap:butt;stroke-linejoin:round;stroke-miterlimit:4;stroke-opacity:1;stroke-dasharray:none" /></g><g
       transform="translate(209.6067,127.4626)"
       id="g394"><path
         d="M 0,0 1.402,-5.233 2.806,0 0,0 z"
         id="path396"
         style="fill:#2c6cbe;fill-opacity:1;fill-rule:nonzero;stroke:none" /></g><text
       transform="matrix(1,0,0,-1,174.3409,311.4706)"
       id="text398"><tspan
         x="0 3.7976401 7.4636102 9.6812096 11.55924 15.16977 19.02285 21.24045 24.57378 26.167681 30.98403 32.862061 35.079659 39.008968 40.602871 44.268841 46.486439 48.731758 50.609791 54.275761 56.139931 57.733829 61.656212 65.620171 67.865494 69.743523 71.607689 73.471863 77.137833 79.355431 81.233459 85.038033 88.891113 90.485008 95.301361 99.230667 103.03524 104.62914 108.23967 111.47598 115.41915 119.02968 121.275 123.15303 126.76356 130.61664 133.10451 136.70811 140.6582 142.24518 145.80026 149.4593 152.78571 154.99638 157.23477 161.03241 162.9035 166.74966 168.96033 172.56393 175.89034 178.101 179.97211 183.81825 187.47729 189.33453 190.92149 194.87852 196.73576 200.33937 203.94296 207.89307 209.76418 213.61032 217.16541 218.75238 220.9977 224.84386 229.21667 233.15985 237.10303 241.04619 244.98936"
         y="0"
         id="tspan400"
         style="font-size:6.92999983px;font-variant:normal;font-weight:normal;font-stretch:normal;writing-mode:lr-tb;fill:#403c3d;fill-opacity:1;fill-rule:nonzero;stroke:none;font-family:'JIFML H+ Meta Pro Normal';-inkscape-font-specification:MetaProNormal-Regular">Patients with atrial fbrillation who experienced gastrointestinal bleeding (n=7845)</tspan></text>
<path
       d="m 554.537,243.3 -513.554,0 0,-19.083 513.554,0 0,19.083 z"
       id="path402"
       style="fill:#d3d2d2;fill-opacity:1;fill-rule:nonzero;stroke:none" /><text
       transform="matrix(1,0,0,-1,277.6692,235.6815)"
       id="text404"><tspan
         x="0 2.0443499 5.8766398 9.0921602 11.10186 14.87871 18.27441 20.2356 23.991659 27.82395 29.37627 33.24321 36.853741"
         y="0"
         id="tspan406"
         style="font-size:6.92999983px;font-variant:normal;font-weight:bold;font-stretch:normal;writing-mode:lr-tb;fill:#403c3d;fill-opacity:1;fill-rule:nonzero;stroke:none;font-family:'JIFML J+ Meta Pro';-inkscape-font-specification:MetaProBold">Inclusion day</tspan></text>
<text
       transform="matrix(1,0,0,-1,173.18559,227.76051)"
       id="text408"><tspan
         x="0 3.79071 7.4497499 9.6604204 11.53152 15.13512 18.98127 21.19194 24.518339 26.10531 30.05541 31.92651 35.252911 38.496151 42.41853 46.077572 48.31596 51.871052 55.474651 59.424751 61.011719 64.670761 68.891129 72.494728 74.733124 76.320091 79.979134 83.825279 86.03595 87.907051 90.117722 94.0401 96.278488 100.07613 105.69636 109.65339 113.45103 115.6617 117.5328 120.77604 122.36301 124.6014 128.205 130.06224 133.72128 135.93195 139.53555 143.48566 145.07262 148.62772 152.28674 155.61314 157.82382 160.06221 163.85985 165.73096 169.5771 171.78777 175.39137 178.71777 180.92844 182.79955 186.64569 190.30473 192.16197 193.74895 197.70596 199.56322 203.16681 206.77042 210.7205 212.59161 216.43776 219.99284 221.57982 223.82513 227.6713 232.04411 235.98729 239.93047 243.87363 246.88818"
         y="0"
         id="tspan410"
         style="font-size:6.92999983px;font-variant:normal;font-weight:normal;font-stretch:normal;writing-mode:lr-tb;fill:#403c3d;fill-opacity:1;fill-rule:nonzero;stroke:none;font-family:'JIFML H+ Meta Pro Normal';-inkscape-font-specification:MetaProNormal-Regular">Patients discharged afer antithrombotic related gastrointestinal bleeding (n=4602)</tspan></text>
<path
       d="m 554.537,159.652 -513.554,0 0,-19.082 513.554,0 0,19.082 z"
       id="path412"
       style="fill:#d3d2d2;fill-opacity:1;fill-rule:nonzero;stroke:none" /><text
       transform="matrix(1,0,0,-1,284.7141,152.0343)"
       id="text414"><tspan
         x="0 4.2134399 7.81704 11.20581 14.76783 16.770599 18.724859 22.55022"
         y="0"
         id="tspan416"
         style="font-size:6.92999983px;font-variant:normal;font-weight:bold;font-stretch:normal;writing-mode:lr-tb;fill:#403c3d;fill-opacity:1;fill-rule:nonzero;stroke:none;font-family:'JIFML J+ Meta Pro';-inkscape-font-specification:MetaProBold">Baseline</tspan></text>
<text
       transform="matrix(1,0,0,-1,242.67672,144.11331)"
       id="text418"><tspan
         x="0 3.9431701 7.8863401 9.4733105 13.42341 17.082451 20.25639 23.58279 25.16976 28.8288 33.049171 36.652771 38.891159 40.47813 42.349232 46.195381 49.438622 51.29586 55.148941 58.475342 60.346439 64.144081 67.990227 69.577202 73.527298 77.18634 80.360283 81.94725 84.192574 88.038719 92.411552 96.354721 100.29789 104.24106 108.18423"
         y="0"
         id="tspan420"
         style="font-size:6.92999983px;font-variant:normal;font-weight:normal;font-stretch:normal;writing-mode:lr-tb;fill:#403c3d;fill-opacity:1;fill-rule:nonzero;stroke:none;font-family:'JIFML H+ Meta Pro Normal';-inkscape-font-specification:MetaProNormal-Regular">90 days afer inclusion day (n=3409)</tspan></text>
<path
       d="m 474.79,92.663 79.747,0 0,-34.798 -79.747,0 0,34.798 z"
       id="path422"
       style="fill:#d3d2d2;fill-opacity:1;fill-rule:nonzero;stroke:none" /><text
       transform="matrix(1,0,0,-1,481.43,85.0322)"
       id="text424"><tspan
         x="0 4.7193298 6.9646502 10.63062 12.49479 14.08869 17.75466 21.60774 23.82534 25.703369 28.953541 32.75811 36.42408 39.986099 43.846111 45.710281 49.376251 51.593849 53.471882 57.276451 61.129532 62.723431"
         y="0"
         id="tspan426"
         style="font-size:6.92999983px;font-variant:normal;font-weight:normal;font-stretch:normal;writing-mode:lr-tb;fill:#403c3d;fill-opacity:1;fill-rule:nonzero;stroke:none;font-family:'JIFML H+ Meta Pro Normal';-inkscape-font-specification:MetaProNormal-Regular">Oral anticoagulation +</tspan><tspan
         x="3.58974 7.2557101 10.58904 14.53221 16.41024 18.65556 20.53359 24.386669 25.98057 29.70891 31.302811 34.968781 38.925812 42.536339 46.38942 50.193989 53.527321 55.40535 59.25843"
         y="7.92099"
         id="tspan428"
         style="font-size:6.92999983px;font-variant:normal;font-weight:normal;font-stretch:normal;writing-mode:lr-tb;fill:#403c3d;fill-opacity:1;fill-rule:nonzero;stroke:none;font-family:'JIFML H+ Meta Pro Normal';-inkscape-font-specification:MetaProNormal-Regular">aspirin + adenosine</tspan><tspan
         x="0.86624998 4.8232799 6.7013102 10.64448 14.57379 18.378361 21.711691 25.65486 29.584169 33.250141 35.467739 39.07827 40.672169 42.917488 46.528019 49.778191 53.388721 57.33189 59.549492 63.354061"
         y="15.84198"
         id="tspan430"
         style="font-size:6.92999983px;font-variant:normal;font-weight:normal;font-stretch:normal;writing-mode:lr-tb;fill:#403c3d;fill-opacity:1;fill-rule:nonzero;stroke:none;font-family:'JIFML H+ Meta Pro Normal';-inkscape-font-specification:MetaProNormal-Regular">diphosphate receptor</tspan><tspan
         x="6.0914698 9.7574396 13.61052 15.82812 19.494089 23.05611 26.86068 30.71376 32.591789 35.925121 38.142719 39.736622 41.988869 45.841949 50.22171 54.17181 58.12191"
         y="23.76297"
         id="tspan432"
         style="font-size:6.92999983px;font-variant:normal;font-weight:normal;font-stretch:normal;writing-mode:lr-tb;fill:#403c3d;fill-opacity:1;fill-rule:nonzero;stroke:none;font-family:'JIFML H+ Meta Pro Normal';-inkscape-font-specification:MetaProNormal-Regular">antagonist (n=11)</tspan></text>
<path
       d="m 388.029,92.663 79.745,0 0,-26.941 -79.745,0 0,26.941 z"
       id="path434"
       style="fill:#d3d2d2;fill-opacity:1;fill-rule:nonzero;stroke:none" /><text
       transform="matrix(1,0,0,-1,398.0681,85.0322)"
       id="text436"><tspan
         x="0 4.0401902 7.3735199 11.31669 13.19472 15.44004 17.318069 21.17115 22.765051 26.493389 28.08729 31.75326 35.710289 39.32082 43.173901 46.97847 50.311798 52.189831 56.042912"
         y="0"
         id="tspan438"
         style="font-size:6.92999983px;font-variant:normal;font-weight:normal;font-stretch:normal;writing-mode:lr-tb;fill:#403c3d;fill-opacity:1;fill-rule:nonzero;stroke:none;font-family:'JIFML H+ Meta Pro Normal';-inkscape-font-specification:MetaProNormal-Regular">Aspirin + adenosine</tspan><tspan
         x="-2.5363801 1.42065 3.2986801 7.2418499 11.17116 14.97573 18.309059 22.25223 26.18154 29.847509 32.065109 35.67564 37.269539 39.514858 43.125389 46.375561 49.986092 53.92926 56.146858 59.951431"
         y="7.92099"
         id="tspan440"
         style="font-size:6.92999983px;font-variant:normal;font-weight:normal;font-stretch:normal;writing-mode:lr-tb;fill:#403c3d;fill-opacity:1;fill-rule:nonzero;stroke:none;font-family:'JIFML H+ Meta Pro Normal';-inkscape-font-specification:MetaProNormal-Regular">diphosphate receptor</tspan><tspan
         x="2.6888399 6.3548102 10.20789 12.42549 16.091459 19.653481 23.45805 27.311131 29.189159 32.522491 34.740089 36.333988 38.586239 42.43932 46.81908 50.76918 54.71928"
         y="15.84198"
         id="tspan442"
         style="font-size:6.92999983px;font-variant:normal;font-weight:normal;font-stretch:normal;writing-mode:lr-tb;fill:#403c3d;fill-opacity:1;fill-rule:nonzero;stroke:none;font-family:'JIFML H+ Meta Pro Normal';-inkscape-font-specification:MetaProNormal-Regular">antagonist (n=51)</tspan></text>
<path
       d="m 301.268,92.663 79.746,0 0,-19.082 -79.746,0 0,19.082 z"
       id="path444"
       style="fill:#d3d2d2;fill-opacity:1;fill-rule:nonzero;stroke:none" /><text
       transform="matrix(1,0,0,-1,310.5699,85.0322)"
       id="text446"><tspan
         x="0 4.7193298 6.9646502 10.63062 12.49479 14.08869 17.75466 21.60774 23.82534 25.703369 28.953541 32.75811 36.42408 39.986099 43.846111 45.710281 49.376251 51.593849 53.471882 57.276451"
         y="0"
         id="tspan448"
         style="font-size:6.92999983px;font-variant:normal;font-weight:normal;font-stretch:normal;writing-mode:lr-tb;fill:#403c3d;fill-opacity:1;fill-rule:nonzero;stroke:none;font-family:'JIFML H+ Meta Pro Normal';-inkscape-font-specification:MetaProNormal-Regular">Oral anticoagulation</tspan><tspan
         x="-4.158 -0.42965999 1.16424 4.8302102 8.6832895 10.90089 12.77892 16.72209 18.58626 22.25223 24.46983 28.08036 29.94453 33.555061 35.772659 39.105991 40.69989 42.952141 46.805222 51.184978 55.135078 59.085178 63.035278"
         y="7.92099"
         id="tspan450"
         style="font-size:6.92999983px;font-variant:normal;font-weight:normal;font-stretch:normal;writing-mode:lr-tb;fill:#403c3d;fill-opacity:1;fill-rule:nonzero;stroke:none;font-family:'JIFML H+ Meta Pro Normal';-inkscape-font-specification:MetaProNormal-Regular">+ antiplatelets (n=384)</tspan></text>
<path
       d="m 214.506,92.663 79.746,0 0,-19.082 -79.746,0 0,19.082 z"
       id="path452"
       style="fill:#d3d2d2;fill-opacity:1;fill-rule:nonzero;stroke:none" /><text
       transform="matrix(1,0,0,-1,235.215,85.0322)"
       id="text454"><tspan
         x="0 4.0401902 7.89327 10.11087 11.9889 15.93207 17.79624 21.46221 23.67981 27.29034 29.15451 32.765041 34.982639"
         y="0"
         id="tspan456"
         style="font-size:6.92999983px;font-variant:normal;font-weight:normal;font-stretch:normal;writing-mode:lr-tb;fill:#403c3d;fill-opacity:1;fill-rule:nonzero;stroke:none;font-family:'JIFML H+ Meta Pro Normal';-inkscape-font-specification:MetaProNormal-Regular">Antiplatelets</tspan><tspan
         x="4.89258 7.1448302 10.99791 15.37767 19.32777 23.27787 27.22797 31.17807"
         y="7.92099"
         id="tspan458"
         style="font-size:6.92999983px;font-variant:normal;font-weight:normal;font-stretch:normal;writing-mode:lr-tb;fill:#403c3d;fill-opacity:1;fill-rule:nonzero;stroke:none;font-family:'JIFML H+ Meta Pro Normal';-inkscape-font-specification:MetaProNormal-Regular">(n=1314)</tspan></text>
<path
       d="m 127.745,92.663 79.746,0 0,-19.082 -79.746,0 0,19.082 z"
       id="path460"
       style="fill:#d3d2d2;fill-opacity:1;fill-rule:nonzero;stroke:none" /><text
       transform="matrix(1,0,0,-1,137.0476,85.0322)"
       id="text462"><tspan
         x="0 4.7193298 6.9646502 10.63062 12.49479 14.08869 17.75466 21.60774 23.82534 25.703369 28.953541 32.75811 36.42408 39.986099 43.846111 45.710281 49.376251 51.593849 53.471882 57.276451"
         y="0"
         id="tspan464"
         style="font-size:6.92999983px;font-variant:normal;font-weight:normal;font-stretch:normal;writing-mode:lr-tb;fill:#403c3d;fill-opacity:1;fill-rule:nonzero;stroke:none;font-family:'JIFML H+ Meta Pro Normal';-inkscape-font-specification:MetaProNormal-Regular">Oral anticoagulation</tspan><tspan
         x="18.267481 20.51973 24.37281 28.752569 32.702671 36.652771 40.602871"
         y="7.92099"
         id="tspan466"
         style="font-size:6.92999983px;font-variant:normal;font-weight:normal;font-stretch:normal;writing-mode:lr-tb;fill:#403c3d;fill-opacity:1;fill-rule:nonzero;stroke:none;font-family:'JIFML H+ Meta Pro Normal';-inkscape-font-specification:MetaProNormal-Regular">(n=725)</tspan></text>
<path
       d="m 40.984,92.663 79.746,0 0,-11.227 -79.746,0 0,11.227 z"
       id="path468"
       style="fill:#d3d2d2;fill-opacity:1;fill-rule:nonzero;stroke:none" /><text
       transform="matrix(1,0,0,-1,43.4632,85.0322)"
       id="text470"><tspan
         x="0 4.4767799 8.2813501 12.13443 14.22036 16.465679 20.07621 23.40954 27.26955 32.896709 36.839882 39.05748 40.935509 44.740082 48.593159 50.187061 52.439308 56.292389 60.67215 64.622253 68.57235 72.522453"
         y="0"
         id="tspan472"
         style="font-size:6.92999983px;font-variant:normal;font-weight:normal;font-stretch:normal;writing-mode:lr-tb;fill:#403c3d;fill-opacity:1;fill-rule:nonzero;stroke:none;font-family:'JIFML H+ Meta Pro Normal';-inkscape-font-specification:MetaProNormal-Regular">Non-resumption (n=924)</tspan></text>
<path
       d="m 474.79,122.229 79.747,0 0,-11.226 -79.747,0 0,11.226 z"
       id="path474"
       style="fill:#d3d2d2;fill-opacity:1;fill-rule:nonzero;stroke:none" /><text
       transform="matrix(1,0,0,-1,490.8488,114.5995)"
       id="text476"><tspan
         x="0 3.2155199 5.4608402 7.33887 11.28204 13.14621 16.756741 18.350639 20.568239 22.81356 26.424089 30.090059 32.307659 37.934818 41.545349 45.39843"
         y="0"
         id="tspan478"
         style="font-size:6.92999983px;font-variant:normal;font-weight:normal;font-stretch:normal;writing-mode:lr-tb;fill:#403c3d;fill-opacity:1;fill-rule:nonzero;stroke:none;font-family:'JIFML H+ Meta Pro Normal';-inkscape-font-specification:MetaProNormal-Regular">Triple treatment</tspan></text>
<path
       d="m 301.218,122.229 166.556,0 0,-11.226 -166.556,0 0,11.226 z"
       id="path480"
       style="fill:#d3d2d2;fill-opacity:1;fill-rule:nonzero;stroke:none" /><text
       transform="matrix(1,0,0,-1,362.1697,114.5995)"
       id="text482"><tspan
         x="0 4.3866901 8.2467003 11.91267 13.77684 15.37074 17.588341 19.83366 23.444189 27.110161 29.327761 34.954922 38.565449 42.41853"
         y="0"
         id="tspan484"
         style="font-size:6.92999983px;font-variant:normal;font-weight:normal;font-stretch:normal;writing-mode:lr-tb;fill:#403c3d;fill-opacity:1;fill-rule:nonzero;stroke:none;font-family:'JIFML H+ Meta Pro Normal';-inkscape-font-specification:MetaProNormal-Regular">Dual treatment</tspan></text>
<g
       transform="translate(297.7385,140.5701)"
       id="g486"><path
         d="m 0,0 0,-7.017 m -216.888,-36.614 0,36.614 433.806,0 0,-7.048"
         id="path488"
         style="fill:none;stroke:#2c6cbe;stroke-width:0.74199998;stroke-linecap:butt;stroke-linejoin:round;stroke-miterlimit:4;stroke-opacity:1;stroke-dasharray:none" /></g><g
       transform="translate(513.2545,127.4626)"
       id="g490"><path
         d="M 0,0 1.402,-5.233 2.804,0 0,0 z"
         id="path492"
         style="fill:#2c6cbe;fill-opacity:1;fill-rule:nonzero;stroke:none" /></g><g
       transform="translate(79.4483,97.8952)"
       id="g494"><path
         d="M 0,0 1.402,-5.232 2.804,0 0,0 z"
         id="path496"
         style="fill:#2c6cbe;fill-opacity:1;fill-rule:nonzero;stroke:none" /></g><path
       d="m 127.748,122.229 166.556,0 0,-11.226 -166.556,0 0,11.226 z"
       id="path498"
       style="fill:#d3d2d2;fill-opacity:1;fill-rule:nonzero;stroke:none" /><text
       transform="matrix(1,0,0,-1,186.1892,114.5995)"
       id="text500"><tspan
         x="0 4.0124698 5.8905001 9.7435799 13.3056 15.16977 18.7803 20.374201 22.591801 24.83712 28.447651 32.113621 34.331219 39.958382 43.568909 47.421989"
         y="0"
         id="tspan502"
         style="font-size:6.92999983px;font-variant:normal;font-weight:normal;font-stretch:normal;writing-mode:lr-tb;fill:#403c3d;fill-opacity:1;fill-rule:nonzero;stroke:none;font-family:'JIFML H+ Meta Pro Normal';-inkscape-font-specification:MetaProNormal-Regular">Single treatment</tspan></text>
<g
       transform="translate(211.0244,111.0038)"
       id="g504"><path
         d="m 0,0 0,-7.017 m -43.378,-7.048 0,7.048 86.726,0 0,-7.048"
         id="path506"
         style="fill:none;stroke:#2c6cbe;stroke-width:0.74199998;stroke-linecap:butt;stroke-linejoin:round;stroke-miterlimit:4;stroke-opacity:1;stroke-dasharray:none" /></g><g
       transform="translate(252.9707,97.8952)"
       id="g508"><path
         d="M 0,0 1.402,-5.232 2.805,0 0,0 z"
         id="path510"
         style="fill:#2c6cbe;fill-opacity:1;fill-rule:nonzero;stroke:none" /></g><g
       transform="translate(166.2447,97.8952)"
       id="g512"><path
         d="M 0,0 1.402,-5.232 2.804,0 0,0 z"
         id="path514"
         style="fill:#2c6cbe;fill-opacity:1;fill-rule:nonzero;stroke:none" /></g><g
       transform="translate(384.4941,111.0038)"
       id="g516"><path
         d="m 0,0 0,-7.017 m 43.375,-7.048 0,7.048 -86.726,0 0,-7.048"
         id="path518"
         style="fill:none;stroke:#2c6cbe;stroke-width:0.74199998;stroke-linecap:butt;stroke-linejoin:round;stroke-miterlimit:4;stroke-opacity:1;stroke-dasharray:none" /></g><g
       transform="translate(342.5449,97.8952)"
       id="g520"><path
         d="M 0,0 -1.402,-5.232 -2.805,0 0,0 z"
         id="path522"
         style="fill:#2c6cbe;fill-opacity:1;fill-rule:nonzero;stroke:none" /></g><g
       transform="translate(429.2709,97.8952)"
       id="g524"><path
         d="M 0,0 -1.402,-5.232 -2.804,0 0,0 z"
         id="path526"
         style="fill:#2c6cbe;fill-opacity:1;fill-rule:nonzero;stroke:none" /></g><path
       d="m 333.229,300.83 221.308,0 0,-50.513 -221.308,0 0,50.513 z"
       id="path528"
       style="fill:#d3d2d2;fill-opacity:1;fill-rule:nonzero;stroke:none" /><text
       transform="matrix(1,0,0,-1,335.8356,293.2117)"
       id="text530"><tspan
         x="0 3.6036 6.83991 10.09008 11.95425 15.81426 19.77129 23.381821 27.33885 28.932751 31.184999 35.038078 39.417839 43.367939 47.318039 51.268139 55.218239 57.47049"
         y="0"
         id="tspan532"
         style="font-size:6.92999983px;font-variant:normal;font-weight:normal;font-stretch:normal;writing-mode:lr-tb;fill:#403c3d;fill-opacity:1;fill-rule:nonzero;stroke:none;font-family:'JIFML H+ Meta Pro Normal';-inkscape-font-specification:MetaProNormal-Regular">Excluded (n=3243):</tspan><tspan
         x="0 3.1877999 7.2279902 10.79001 14.40054 15.99444 18.26055 22.210649 26.160749 27.75465 31.559219 33.804539 35.398441 37.671478 41.621578 45.571678 49.521778 51.115681 54.296551 57.907082 61.573051 63.818371 67.151703 68.745598 70.997849 74.850929 79.23069 83.180794"
         y="7.92099"
         id="tspan534"
         style="font-size:6.92999983px;font-variant:normal;font-weight:normal;font-stretch:normal;writing-mode:lr-tb;fill:#403c3d;fill-opacity:1;fill-rule:nonzero;stroke:none;font-family:'JIFML H+ Meta Pro Normal';-inkscape-font-specification:MetaProNormal-Regular"> Age &lt;30 or &gt;100 years (n=6)</tspan><tspan
         x="0 3.1877999 7.18641 10.85238 12.71655 15.99444 19.85445 21.71862 25.38459 27.62991 29.22381 33.18084 35.058868 38.3922 42.002731 45.668701 49.002029 52.61256 54.206459 56.45871 60.31179 64.691551 68.641647 72.591751 76.541847 80.491951"
         y="15.84198"
         id="tspan536"
         style="font-size:6.92999983px;font-variant:normal;font-weight:normal;font-stretch:normal;writing-mode:lr-tb;fill:#403c3d;fill-opacity:1;fill-rule:nonzero;stroke:none;font-family:'JIFML H+ Meta Pro Normal';-inkscape-font-specification:MetaProNormal-Regular"> Valvular disease (n=1002)</tspan><tspan
         x="0 3.1877999 6.4033198 10.20789 12.42549 16.091459 17.955629 19.54953 23.47884 25.356871 29.300039 30.89394 34.698509 36.943829 38.537731 42.099751 45.952831 49.563358 53.173889 54.767792 58.433762 60.679081 62.896679 66.825989 69.071312 72.875877 76.819054 78.68322 82.34919 85.682518 87.900124 91.080994 92.674889 97.491241 99.36927 101.58687 105.51618 107.39421 111.24729 112.84119 116.76357 120.04146 123.65199 125.24589 130.06224 133.67278 137.28329 140.84532 144.17865 145.77255 148.0248 151.87788 156.25764 160.20773 164.15784 168.10794"
         y="23.76297"
         id="tspan538"
         style="font-size:6.92999983px;font-variant:normal;font-weight:normal;font-stretch:normal;writing-mode:lr-tb;fill:#403c3d;fill-opacity:1;fill-rule:nonzero;stroke:none;font-family:'JIFML H+ Meta Pro Normal';-inkscape-font-specification:MetaProNormal-Regular"> Total hip or knee arthroplasty within fve weeks (n=127)</tspan><tspan
         x="0 3.1877999 6.9854398 10.84545 12.70962 18.336781 22.14135 25.994431 29.6604 31.90572 35.08659 36.680489 40.291019 45.918179 49.882141 53.68671 55.55088 57.428909 60.762241 66.389397 67.983299 71.787872 74.033188 75.62709 79.584122 83.194649 86.805183 90.748352 92.342247 95.62014 99.230667 101.1087 104.96178 106.55568 108.77328 112.70259 114.94791 118.75248 124.37964 128.3436 132.14816 135.48151 137.35953 140.69286 142.28676 147.1031 148.98114 151.19875 155.12805 157.00607 160.85916 162.45306 165.78639 167.66441 170.90073 172.49463 178.1218 181.92636 185.77943 187.99704 191.92635 195.25967 196.85358 199.10583 202.95891 207.33867 211.28877 215.23888"
         y="31.68396"
         id="tspan540"
         style="font-size:6.92999983px;font-variant:normal;font-weight:normal;font-stretch:normal;writing-mode:lr-tb;fill:#403c3d;fill-opacity:1;fill-rule:nonzero;stroke:none;font-family:'JIFML H+ Meta Pro Normal';-inkscape-font-specification:MetaProNormal-Regular"> Pulmonary embolism or deep vein thrombosis within six months (n=95)</tspan><tspan
         x="0 3.1877999 7.6645799 11.46915 13.06305 16.729019 20.5821 22.7997 24.677731 26.89533 30.82464 33.069962 36.874531 42.50169 46.465649 50.270222 52.48782 54.365849 57.61602 59.209919 61.427521 63.67284 67.283371 70.949341 73.166939 78.794098 82.404633 86.257713 88.475311 90.069206 94.033173 97.6437 99.743492 103.54806 105.79338 109.40391 110.99781 114.55983 118.2258 121.55913 123.77673 126.02205 129.82661 131.70465 135.55772 137.77533 141.38586 144.71919 146.93678 148.81482 152.66789 156.33388 158.19804 159.79195 163.75591 165.62007 169.23061 172.84113 176.79816 178.67619 182.52927 186.09129 187.6852 189.93744 193.79053 198.17027 202.12038 206.07048 210.02058 213.97067"
         y="39.60495"
         id="tspan542"
         style="font-size:6.92999983px;font-variant:normal;font-weight:normal;font-stretch:normal;writing-mode:lr-tb;fill:#403c3d;fill-opacity:1;fill-rule:nonzero;stroke:none;font-family:'JIFML H+ Meta Pro Normal';-inkscape-font-specification:MetaProNormal-Regular"> No antithrombotic treatment before gastrointestinal bleeding (n=2013)</tspan></text>
<g
       transform="translate(297.7583,307.8645)"
       id="g544"><path
         d="M 0,0 0,-60.289"
         id="path546"
         style="fill:none;stroke:#2c6cbe;stroke-width:0.74199998;stroke-linecap:butt;stroke-linejoin:round;stroke-miterlimit:4;stroke-opacity:1;stroke-dasharray:none" /></g><g
       transform="translate(296.3733,248.5322)"
       id="g548"><path
         d="M 0,0 1.402,-5.232 2.804,0 0,0 z"
         id="path550"
         style="fill:#2c6cbe;fill-opacity:1;fill-rule:nonzero;stroke:none" /></g><g
       transform="translate(297.7573,275.5562)"
       id="g552"><path
         d="M 0,0 31.195,0"
         id="path554"
         style="fill:none;stroke:#2c6cbe;stroke-width:0.74199998;stroke-linecap:butt;stroke-linejoin:round;stroke-miterlimit:4;stroke-opacity:1;stroke-dasharray:none" /></g><g
       transform="translate(327.9968,274.1716)"
       id="g556"><path
         d="M 0,0 5.232,1.402 0,2.804 0,0 z"
         id="path558"
         style="fill:#2c6cbe;fill-opacity:1;fill-rule:nonzero;stroke:none" /></g><path
       d="m 333.229,217.183 221.308,0 0,-50.514 -221.308,0 0,50.514 z"
       id="path560"
       style="fill:#d3d2d2;fill-opacity:1;fill-rule:nonzero;stroke:none" /><text
       transform="matrix(1,0,0,-1,335.8356,209.5642)"
       id="text562"><tspan
         x="0 3.6036 6.83991 10.09008 11.95425 15.81426 19.77129 23.381821 27.33885 28.932751 33.7491 35.627129 37.84473 41.77404 43.652069 47.50515 49.099049 53.049149 56.999249 58.593151 62.550179 66.216148 69.397018 72.730347 74.324249 78.288208 80.152382 83.818352 87.671432 91.233452 93.111481 96.964561 100.52658 102.12048 106.06365 109.67418 111.9195 113.79753 117.6021 121.55913 123.15303 125.40528 129.25836 133.63812 137.58823 141.53831 145.48842 149.43852 151.69077"
         y="0"
         id="tspan564"
         style="font-size:6.92999983px;font-variant:normal;font-weight:normal;font-stretch:normal;writing-mode:lr-tb;fill:#403c3d;fill-opacity:1;fill-rule:nonzero;stroke:none;font-family:'JIFML H+ Meta Pro Normal';-inkscape-font-specification:MetaProNormal-Regular">Excluded within 90 days blanking period (n=1193):</tspan><tspan
         x="0 3.1877999 6.4033198 10.33263 12.57795 16.382521 22.00968 25.97364 29.77821 33.388741 39.0159 42.979858 46.784431 48.648602 50.52663 53.859959 59.487122 61.08102 63.333271 67.186348 71.566109 75.516212 79.466309 83.416412"
         y="7.92099"
         id="tspan566"
         style="font-size:6.92999983px;font-variant:normal;font-weight:normal;font-stretch:normal;writing-mode:lr-tb;fill:#403c3d;fill-opacity:1;fill-rule:nonzero;stroke:none;font-family:'JIFML H+ Meta Pro Normal';-inkscape-font-specification:MetaProNormal-Regular"> Thromboembolism (n=217)</tspan><tspan
         x="0 3.1877999 7.0408802 10.65141 13.90158 17.761589 20.00691 22.25223 25.862761 29.715839 31.933439 33.52734 37.089359 40.755329 44.088661 46.306259 48.551579 52.356152 54.23418 58.087261 60.304859 63.91539 67.248718 69.466316 71.344353 75.197433 78.863403 80.72757 82.321472 86.285431 88.149597 91.760132 95.370659 99.32769 101.20572 105.0588 108.62082 110.21472 112.46697 116.32005 120.69981 124.64991 128.60001 132.55011"
         y="15.84198"
         id="tspan568"
         style="font-size:6.92999983px;font-variant:normal;font-weight:normal;font-stretch:normal;writing-mode:lr-tb;fill:#403c3d;fill-opacity:1;fill-rule:nonzero;stroke:none;font-family:'JIFML H+ Meta Pro Normal';-inkscape-font-specification:MetaProNormal-Regular"> Recurrent gastrointestinal bleeding (n=371)</tspan><tspan
         x="0 3.1877999 8.7733803 12.43935 14.31045 18.115021 20.36034 21.954241 25.9182 27.78237 31.3929 35.003429 38.960461 40.83849 44.69157 48.25359 49.847488 52.099739 55.95282 60.332581 64.282677 68.23278 72.182877"
         y="23.76297"
         id="tspan570"
         style="font-size:6.92999983px;font-variant:normal;font-weight:normal;font-stretch:normal;writing-mode:lr-tb;fill:#403c3d;fill-opacity:1;fill-rule:nonzero;stroke:none;font-family:'JIFML H+ Meta Pro Normal';-inkscape-font-specification:MetaProNormal-Regular"> Major bleeding (n=108)</tspan><tspan
         x="0 3.1877999 7.5744901 11.18502 14.85099 17.06859 20.9979 22.591801 24.844049 28.69713 33.076889 37.026989 40.977089 44.927189"
         y="31.68396"
         id="tspan572"
         style="font-size:6.92999983px;font-variant:normal;font-weight:normal;font-stretch:normal;writing-mode:lr-tb;fill:#403c3d;fill-opacity:1;fill-rule:nonzero;stroke:none;font-family:'JIFML H+ Meta Pro Normal';-inkscape-font-specification:MetaProNormal-Regular"> Death (n=423)</tspan><tspan
         x="0 3.1877999 7.2002702 9.4178696 13.27788 17.234909 20.415779 22.00968 25.95285 29.563379 31.808701 33.686729 37.491299 41.44833 43.042229 46.65276 50.50584 54.462872 58.073399 62.03043 63.624329 67.588287 71.198822 73.298607 77.10318 79.348503 82.95903 84.552933 86.652718 90.457291 92.321457 94.185631 97.990196 102.80655 104.89248 108.75249 112.69566 114.28956 117.62289 119.84049 123.50646 125.75178 127.96938 131.57991 135.53694 137.13084 139.38309 143.23618 147.61594 151.56602 155.51613"
         y="39.60495"
         id="tspan574"
         style="font-size:6.92999983px;font-variant:normal;font-weight:normal;font-stretch:normal;writing-mode:lr-tb;fill:#403c3d;fill-opacity:1;fill-rule:nonzero;stroke:none;font-family:'JIFML H+ Meta Pro Normal';-inkscape-font-specification:MetaProNormal-Regular"> Study period ended before follow-up started (n=74)</tspan></text>
<g
       transform="translate(297.7583,224.2173)"
       id="g576"><path
         d="M 0,0 0,-60.289"
         id="path578"
         style="fill:none;stroke:#2c6cbe;stroke-width:0.74199998;stroke-linecap:butt;stroke-linejoin:round;stroke-miterlimit:4;stroke-opacity:1;stroke-dasharray:none" /></g><g
       transform="translate(296.3733,164.8846)"
       id="g580"><path
         d="M 0,0 1.402,-5.232 2.804,0 0,0 z"
         id="path582"
         style="fill:#2c6cbe;fill-opacity:1;fill-rule:nonzero;stroke:none" /></g><g
       transform="translate(297.7573,191.9086)"
       id="g584"><path
         d="M 0,0 31.195,0"
         id="path586"
         style="fill:none;stroke:#2c6cbe;stroke-width:0.74199998;stroke-linecap:butt;stroke-linejoin:round;stroke-miterlimit:4;stroke-opacity:1;stroke-dasharray:none" /></g><g
       transform="translate(327.9968,190.5246)"
       id="g588"><path
         d="M 0,0 5.232,1.402 0,2.804 0,0 z"
         id="path590"
         style="fill:#2c6cbe;fill-opacity:1;fill-rule:nonzero;stroke:none" /></g></g></svg>